<svg xmlns="http://www.w3.org/2000/svg" id="Layer_1" viewBox="0 0 360 225.8">
    <style>
        .st0{fill:#3a4d95}
    </style>
    <circle cx="96.2" cy="20.4" r="3.6" class="st0"/>
    <path d="M96.2 24" class="st0"/>
    <circle cx="114.5" cy="20.4" r="1.7" class="st0"/>
    <circle cx="133.4" cy="20.4" r="1.3" class="st0"/>
    <path d="M77.9 42.4c2 0 3.7-1.7 3.7-3.7S79.9 35 77.9 35s-3.7 1.7-3.7 3.7c0 2.1 1.7 3.7 3.7 3.7z" class="st0"/>
    <circle cx="96.2" cy="38.7" r="1.8" class="st0"/>
    <circle cx="114.5" cy="38.7" r="1.1" class="st0"/>
    <path d="M133.4 41.6c1.6 0 2.9-1.3 2.9-2.9 0-1.6-1.3-2.9-2.9-2.9-1.6 0-2.9 1.3-2.9 2.9.1 1.6 1.4 2.9 2.9 2.9zM21.7 58.3c.7 0 1.3-.6 1.3-1.3 0-.7-.6-1.3-1.3-1.3-.7 0-1.3.6-1.3 1.3.1.7.6 1.3 1.3 1.3zm19.6.8c.4 0 .8-.4.8-.8s-.4-.8-.8-.8-.8.4-.8.8.4.8.8.8zm17.7-1c.6 0 1.1-.5 1.1-1.1 0-.6-.5-1.1-1.1-1.1-.6 0-1.1.5-1.1 1.1 0 .6.5 1.1 1.1 1.1zM79 57c0-.6-.5-1.1-1.1-1.1-.6 0-1.1.5-1.1 1.1s.5 1.1 1.1 1.1c.6 0 1.1-.5 1.1-1.1zm18.4 0c0-.6-.5-1.2-1.1-1.2-.6 0-1.2.5-1.2 1.1v.1c0 .6.5 1.2 1.2 1.1.6 0 1.1-.5 1.1-1.1zm16.5 0c0 .3.3.6.6.6s.6-.3.6-.6-.3-.6-.6-.6-.6.3-.6.6zm19.5 1.7c1 0 1.7-.8 1.7-1.7 0-1-.8-1.7-1.7-1.7-1 0-1.7.8-1.7 1.7 0 1 .8 1.7 1.7 1.7z" class="st0"/>
    <circle cx="21.7" cy="75.9" r="1.5" class="st0"/>
    <path d="M40.7 78.4c1.3 0 2.5-1 2.5-2.4s-1-2.5-2.4-2.5h-.1c-1.3 0-2.4 1.2-2.4 2.5s1.1 2.3 2.4 2.4zM59 77.1c.6 0 1.2-.5 1.2-1.2 0-.6-.5-1.2-1.2-1.2-.6 0-1.2.5-1.2 1.2s.5 1.2 1.2 1.2zm17-1.2c0 1 .8 1.9 1.9 1.9 1 0 1.9-.8 1.9-1.9 0-1-.8-1.9-1.9-1.9s-1.9.9-1.9 1.9zm20.2-3.4c-1.9 0-3.4 1.6-3.4 3.5s1.5 3.4 3.4 3.4 3.5-1.5 3.5-3.4-1.5-3.5-3.5-3.5c.1 0 0 0 0 0z" class="st0"/>
    <circle cx="114.5" cy="75.9" r="1.8" class="st0"/>
    <path d="M133.4 78.2c1.2 0 2.3-.9 2.3-2.2 0-1.2-.9-2.3-2.2-2.3h-.2c-1.2 0-2.2 1.1-2.2 2.3.2 1.2 1.2 2.1 2.3 2.2zm19-74.5c1.2 0 2.2-1 2.2-2.2 0-1.2-1-2.2-2.2-2.2-1.2 0-2.2 1-2.2 2.2-.1 1.2.9 2.2 2.2 2.2zm18.3-1.5c.4 0 .7-.3.7-.7 0-.4-.3-.7-.7-.7-.4 0-.7.3-.7.7-.1.4.3.7.7.7zM189-1.9c-1.9 0-3.4 1.5-3.4 3.4s1.5 3.4 3.4 3.4 3.4-1.5 3.4-3.4-1.5-3.4-3.4-3.4zM207.9 2c.3 0 .6-.3.6-.6s-.3-.6-.6-.6-.6.3-.6.6c0 .4.3.6.6.6zm18.3.1c.3 0 .6-.3.6-.6s-.3-.6-.6-.6-.6.3-.6.6.3.6.6.6zm18.9.6c.7 0 1.2-.6 1.2-1.2 0-.7-.6-1.2-1.2-1.2-.7 0-1.2.6-1.2 1.2 0 .7.6 1.2 1.2 1.2z" class="st0"/>
    <circle cx="151.7" cy="20.4" r="1.2" class="st0"/>
    <circle cx="170.7" cy="20.4" r=".4" class="st0"/>
    <circle cx="189" cy="20.4" r="2.7" class="st0"/>
    <path d="M207.9 16.8c-2 0-3.6 1.6-3.6 3.6s1.6 3.6 3.6 3.6 3.6-1.6 3.6-3.6-1.6-3.6-3.6-3.6zm18.3 5.3c.9 0 1.7-.7 1.7-1.6 0-.9-.7-1.7-1.6-1.7h-.1c-.9 0-1.7.8-1.6 1.7 0 .8.7 1.6 1.6 1.6z" class="st0"/>
    <circle cx="244.5" cy="20.4" r="2.1" class="st0"/>
    <circle cx="263.4" cy="20.4" r="2.9" class="st0"/>
    <path d="M263.4 23.3" class="st0"/>
    <circle cx="281.7" cy="20.4" r="1.1" class="st0"/>
    <path d="M151.7 42.3c2 0 3.6-1.6 3.6-3.6s-1.6-3.6-3.6-3.6-3.6 1.7-3.5 3.7c0 1.9 1.6 3.5 3.5 3.5z" class="st0"/>
    <circle cx="170.7" cy="38.7" r=".4" class="st0"/>
    <path d="M189.6 35.8c-1.3 0-2.2 1.1-2.2 2.3 0 1.2 1 2.2 2.2 2.2 1.3 0 2.3-1 2.3-2.3 0-1.2-1-2.2-2.3-2.2zm20.2 2.9c0-1-.8-1.9-1.9-1.9-1 0-1.9.8-1.9 1.9v.1c0 1 .9 1.9 1.9 1.9 1.1-.1 1.9-1 1.9-2zm16.4 3.5c1.9 0 3.5-1.6 3.5-3.5s-1.6-3.5-3.5-3.5-3.5 1.6-3.5 3.5 1.6 3.5 3.5 3.5zm18.3-1.3c1.2 0 2.1-1 2.1-2.1 0-1.2-1-2.1-2.1-2.1-1.2 0-2.1 1-2.1 2.1s.9 2.1 2.1 2.1zm18.9-4.6c-1.4 0-2.5 1.1-2.5 2.4 0 1.4 1.1 2.5 2.4 2.5h.1c1.4 0 2.4-1.2 2.4-2.5 0-1.4-1-2.4-2.4-2.4z" class="st0"/>
    <circle cx="281.7" cy="38.7" r="1.2" class="st0"/>
    <path d="M153.5 57c0-1-.8-1.8-1.8-1.8S150 56 150 57s.8 1.8 1.8 1.7c.9 0 1.7-.7 1.7-1.7zm17.2 2.3c1.3 0 2.3-1 2.3-2.3 0-1.3-1-2.3-2.3-2.3-1.3 0-2.3 1-2.3 2.3 0 1.3 1 2.3 2.3 2.3zM189 59c1.1 0 2-.9 2-2s-.9-2-2-2-2 .9-2 2 .9 2 2 2zm18.9-1.2c.4 0 .8-.4.8-.8s-.4-.8-.8-.8-.8.4-.8.8c0 .5.4.8.8.8zm18-.8c0 .2.2.3.4.3s.3-.2.3-.3c0-.2-.2-.3-.3-.3-.3 0-.4.1-.4.3zm19.3 0c0-.4-.3-.7-.7-.7s-.7.3-.7.7c0 .4.3.7.7.7s.7-.3.7-.7zm18.2-3.6c-2 0-3.7 1.6-3.7 3.7 0 2 1.6 3.7 3.7 3.7 2 0 3.7-1.6 3.7-3.7s-1.6-3.7-3.7-3.7zm18.3 5.9c1.3 0 2.3-1 2.3-2.3 0-1.3-1-2.3-2.3-2.3-1.3 0-2.3 1-2.3 2.3.1 1.3 1.1 2.3 2.3 2.3zm-130 13.1c-1.9 0-3.5 1.6-3.5 3.5s1.6 3.5 3.5 3.5 3.5-1.6 3.5-3.5-1.5-3.5-3.5-3.5zm19 6.4c1.6 0 2.9-1.3 2.8-2.9 0-1.6-1.3-2.8-2.8-2.8-1.6 0-2.9 1.3-2.8 2.9 0 1.5 1.2 2.8 2.8 2.8zM189 78c1.2 0 2.1-.9 2.1-2.1 0-1.2-.9-2.1-2.1-2.1-1.1 0-2.1.9-2.1 2.1 0 1.2.9 2.1 2.1 2.1zm18.9-.9c.6 0 1.1-.5 1.1-1.1s-.5-1.1-1.1-1.1c-.6 0-1.1.5-1.1 1.1 0 .6.5 1.1 1.1 1.1zm18.3-4.8c-2 0-3.7 1.7-3.7 3.7s1.7 3.7 3.7 3.7 3.7-1.7 3.7-3.7c0-2.1-1.7-3.7-3.7-3.7z" class="st0"/>
    <circle cx="244.5" cy="75.9" r=".6" class="st0"/>
    <path d="M263.4 78.3c1.3 0 2.4-1 2.4-2.2 0-1.3-1-2.4-2.2-2.4h-.2c-1.3.1-2.3 1.1-2.2 2.4.1 1.2 1 2.1 2.2 2.2z" class="st0"/>
    <circle cx="281.7" cy="75.9" r=".6" class="st0"/>
    <path d="M356.8 2.2c.4 0 .8-.3.8-.8s-.3-.8-.8-.8-.8.3-.8.8.4.8.8.8z" class="st0"/>
    <circle cx="301.3" cy="20.4" r="2.2" class="st0"/>
    <circle cx="319.6" cy="20.4" r="3.2" class="st0"/>
    <circle cx="338.5" cy="20.4" r="1" class="st0"/>
    <circle cx="356.8" cy="20.4" r="2.4" class="st0"/>
    <path d="M301.3 39.4c.4 0 .7-.3.7-.7 0-.4-.3-.7-.7-.7-.4 0-.7.3-.7.7 0 .4.3.7.7.7zm16.3-.7c0 1.1.9 2 2 2s2-.9 2-2-.9-2-2-2-2 .9-2 2zm20.9 1.6c.9 0 1.6-.7 1.6-1.6 0-.9-.7-1.6-1.6-1.6-.9 0-1.6.7-1.6 1.6 0 .9.8 1.6 1.6 1.6zm18.3-.3c.7 0 1.3-.6 1.3-1.3 0-.7-.6-1.3-1.3-1.3-.7 0-1.3.6-1.3 1.3.1.7.6 1.3 1.3 1.3zm-55.5 18c.5 0 .9-.4.9-.9s-.4-.9-.9-.9-.9.4-.9.9.4.9.9.9zm17.4-1c0 .5.4.9.9.9s.9-.4.9-.9-.4-.9-.9-.8c-.5 0-.9.4-.9.8zm19.8-3.8c-2.1 0-3.8 1.7-3.8 3.8 0 2.1 1.7 3.8 3.8 3.8 2.1 0 3.8-1.7 3.8-3.8 0-2.1-1.7-3.8-3.8-3.8zm18.3 5.5c.9 0 1.7-.7 1.7-1.7 0-.9-.7-1.7-1.7-1.7-.9 0-1.7.7-1.7 1.7.1.9.8 1.7 1.7 1.7zM301.3 77c.6 0 1.1-.5 1.1-1.1s-.5-1.1-1.1-1.1c-.6 0-1.1.5-1.1 1.1 0 .6.5 1.1 1.1 1.1zm18.3 1.8c1.6 0 2.8-1.3 2.8-2.8 0-1.6-1.3-2.8-2.8-2.8-1.6 0-2.8 1.3-2.8 2.8s1.3 2.8 2.8 2.8zm21.2-2.9c0-1.3-1-2.3-2.3-2.3-1.3 0-2.3 1-2.3 2.3 0 1.3 1.1 2.3 2.3 2.3 1.3 0 2.3-1 2.3-2.3zm17.6 0c0-.9-.7-1.6-1.6-1.6-.9 0-1.6.7-1.6 1.6 0 .9.7 1.6 1.6 1.6.9 0 1.6-.7 1.6-1.6zM21.7 96c.9 0 1.7-.8 1.7-1.7 0-.9-.8-1.7-1.7-1.7-.9 0-1.7.8-1.7 1.7 0 .9.8 1.7 1.7 1.7zm19-4.8c-1.7 0-3 1.4-3 3 0 1.7 1.4 3 3 3 1.7 0 3-1.4 3-3s-1.4-3-3-3zm93.4 1.9c-.6 0-1.1.5-1.1 1.1 0 .6.5 1.1 1.1 1.1.6 0 1.1-.5 1.1-1.1 0-.6-.5-1.1-1.1-1.1zM3.4 109.7c-1.9 0-3.4 1.5-3.4 3.4s1.5 3.4 3.4 3.4 3.4-1.5 3.4-3.4c.1-1.8-1.5-3.4-3.4-3.4zm18.3 5.4c1 0 1.9-.8 1.9-1.9 0-1-.8-1.9-1.9-1.9-1 0-1.9.8-1.9 1.9 0 1 .9 1.9 1.9 1.9zm19.4-1.9c0-.3-.2-.5-.4-.5-.3 0-.5.2-.5.4v.1c0 .3.3.5.5.4.2 0 .4-.2.4-.4zm38.3 0c0-.8-.6-1.5-1.4-1.5-.8 0-1.5.6-1.5 1.4v.1c0 .8.7 1.4 1.5 1.4.7 0 1.3-.7 1.4-1.4zm18.8-.6c0-.7-.6-1.3-1.3-1.3-.7 0-1.3.6-1.3 1.3 0 .7.6 1.3 1.3 1.3.7 0 1.3-.6 1.3-1.3zm16.3-3.2c-2.1 0-3.8 1.7-3.8 3.8 0 2.1 1.7 3.8 3.8 3.8 2.1 0 3.8-1.7 3.8-3.8 0-2.1-1.7-3.8-3.8-3.8zm18.9 5.8c1.1 0 2-.9 2-2s-.9-2-2-2-2 .9-2 2c.1 1.1.9 2 2 2zM21.7 132.3c.5 0 .8-.4.8-.8 0-.5-.4-.8-.8-.8-.5 0-.8.4-.8.8s.4.8.8.8zm17.6-.8c0 .7.6 1.4 1.3 1.4.7 0 1.4-.6 1.4-1.3v-.1c0-.7-.7-1.3-1.4-1.3s-1.3.6-1.3 1.3zm19.7 3.4c1.9 0 3.4-1.5 3.4-3.4s-1.6-3.3-3.4-3.3c-1.8 0-3.3 1.5-3.3 3.3-.1 1.8 1.4 3.4 3.3 3.4zm18-3.4c0 .5.4.9.9.9s.9-.4.9-.9-.4-.9-.9-.9-.9.4-.9.9zm19.2-3c-1.7 0-3 1.4-3 3.1 0 1.6 1.3 2.9 3 3 1.7 0 3-1.4 3-3 0-1.8-1.3-3.1-3-3.1zm19 3c0-.4-.3-.7-.7-.7-.4 0-.7.3-.7.7 0 .4.3.7.7.7.4-.1.7-.4.7-.7z" class="st0"/>
    <circle cx="133.4" cy="131.5" r=".4" class="st0"/>
    <path d="M40.7 149.2c-.6 0-1.2.5-1.2 1.2 0 .6.5 1.2 1.2 1.2.6 0 1.2-.5 1.2-1.2-.1-.6-.6-1.2-1.2-1.2zm16.5 1.2c0 1 .8 1.8 1.8 1.8s1.8-.8 1.8-1.8-.8-1.8-1.8-1.8-1.8.8-1.8 1.8zm17.5 0c0 1.8 1.5 3.3 3.3 3.2 1.8 0 3.2-1.5 3.2-3.3 0-1.8-1.5-3.2-3.3-3.2-1.8.1-3.2 1.5-3.2 3.3zm21.5-2.9c-1.6 0-2.9 1.3-2.9 2.9 0 1.6 1.3 2.9 2.9 2.9 1.6 0 2.9-1.3 2.9-2.9 0-1.6-1.3-2.9-2.9-2.9zm16.3 2.9c0 1.1.9 2 2.1 2 1.1 0 2-.9 2-2s-.9-2-2.1-2c-1.1 0-2 .9-2 2zm21.7 0c0-.4-.4-.8-.8-.8s-.8.4-.8.8.4.8.8.8c.5 0 .8-.3.8-.8zM3.4 170.1c.8 0 1.4-.6 1.4-1.4 0-.8-.6-1.4-1.4-1.4-.8 0-1.4.6-1.4 1.4 0 .8.7 1.4 1.4 1.4zM59 165c-2.1 0-3.8 1.7-3.8 3.8 0 2.1 1.7 3.8 3.8 3.8 2.1 0 3.8-1.7 3.8-3.8-.1-2.2-1.8-3.8-3.8-3.8zm18.9-.1c-2.1 0-3.8 1.7-3.8 3.8 0 2.1 1.7 3.8 3.8 3.8 2.1 0 3.8-1.7 3.8-3.8 0-2.1-1.7-3.8-3.8-3.8zm18.3 1.9c-1.1 0-1.9.8-2 1.9 0 1.1.8 1.9 1.9 2h.1c1.1 0 1.9-.9 1.9-1.9 0-1.1-.8-2-1.9-2zm18.3-1.3c-1.8 0-3.2 1.5-3.2 3.3s1.5 3.2 3.3 3.2c1.8 0 3.2-1.5 3.2-3.3 0-1.8-1.5-3.2-3.3-3.2zm18.4 3.2c0 .3.2.5.5.5s.5-.2.5-.5-.2-.5-.5-.5-.5.2-.5.5zM1.2 187c0 .9.7 1.6 1.6 1.6.9 0 1.6-.7 1.6-1.6 0-.9-.7-1.6-1.6-1.6-.9 0-1.6.7-1.6 1.6zm20.5-3.5c-2 0-3.6 1.6-3.6 3.6s1.6 3.6 3.6 3.6 3.6-1.6 3.6-3.6c0-2.1-1.6-3.6-3.6-3.6zm19 1.2c-1.3 0-2.3 1-2.3 2.3 0 1.3 1 2.3 2.3 2.3 1.3 0 2.3-1 2.3-2.3-.1-1.2-1.1-2.3-2.3-2.3zm18.3-.6c-1.6 0-2.9 1.4-2.9 3s1.3 2.9 2.9 2.9c1.6 0 3-1.3 3-3-.1-1.6-1.4-2.9-3-2.9zm18.9.2c-1.5 0-2.7 1.2-2.7 2.7 0 1.5 1.2 2.7 2.7 2.7 1.5 0 2.7-1.2 2.7-2.7 0-1.5-1.2-2.7-2.7-2.7z" class="st0"/>
    <circle cx="96.2" cy="187" r=".7" class="st0"/>
    <path d="M114.5 185.9c-.6 0-1.1.5-1.1 1.1 0 .6.5 1.1 1.1 1.1.6 0 1.1-.5 1.1-1.1 0-.6-.5-1.1-1.1-1.1zm19.6 2.8c.9 0 1.7-.7 1.7-1.7 0-.9-.7-1.7-1.7-1.7-.9 0-1.7.7-1.7 1.7 0 .9.8 1.7 1.7 1.7zM2.2 205.3c0 .3.3.6.6.6s.6-.3.6-.6-.3-.6-.6-.6-.6.3-.6.6z" class="st0"/>
    <circle cx="21.7" cy="205.3" r=".3" class="st0"/>
    <path d="M40.7 204.7c-.7 0-1.2.6-1.2 1.3 0 .7.6 1.2 1.2 1.2.7 0 1.3-.6 1.3-1.3-.1-.6-.6-1.2-1.3-1.2zm18.3-1.3c-1.1 0-1.9.9-1.9 1.9 0 1.1.9 1.9 1.9 1.9 1.1 0 1.9-.9 1.9-1.9 0-1-.9-1.9-1.9-1.9zm18.9 1.3c-.7 0-1.2.6-1.2 1.2 0 .7.6 1.2 1.2 1.2.7 0 1.2-.6 1.2-1.2s-.5-1.2-1.2-1.2zm55.5-1.8c-1.7 0-3.1 1.4-3.1 3.1 0 1.7 1.4 3.1 3.1 3.1 1.7 0 3.1-1.4 3.1-3.1 0-1.7-1.4-3.1-3.1-3.1zm-130 18c-1.9 0-3.4 1.5-3.4 3.4s1.5 3.4 3.4 3.4 3.4-1.5 3.4-3.4-1.5-3.4-3.4-3.4zm18.3-.1c-1.9 0-3.4 1.5-3.4 3.4s1.5 3.4 3.4 3.4 3.4-1.5 3.4-3.4c.1-1.8-1.5-3.4-3.4-3.4zm132-126.6c0-1.1-.9-2-2-2s-2 .9-2 2 .9 2 2 2 2-.9 2-2c0 .1 0 0 0 0zm17 3c1.6 0 3-1.3 3-3 0-1.6-1.3-3-3-3-1.6 0-3 1.3-3 3s1.3 3 3 3zm19.2-3c0-.5-.4-.9-.9-.9s-.9.4-.9.9.4.9.9.9c.5.1.9-.3.9-.9zm18 2.4c1.3 0 2.3-1 2.3-2.3 0-1.3-1-2.3-2.3-2.3-1.3 0-2.3 1-2.3 2.3 0 1.2 1 2.3 2.3 2.3zm21.6-2.4c0-1.8-1.5-3.2-3.3-3.2-1.8 0-3.2 1.5-3.2 3.2 0 1.8 1.5 3.2 3.2 3.2 1.8.1 3.3-1.4 3.3-3.2zm17.1 0c0-1.1-.9-2.1-2.1-2.1-1.1 0-2 .9-2 2.1 0 1.1.9 2 2.1 2 1 .1 2-.8 2-2zm16.8 3.2c1.7 0 3.1-1.4 3.1-3.1 0-1.7-1.4-3.1-3.1-3.1-1.7 0-3.1 1.4-3.1 3.1 0 1.7 1.4 3.1 3.1 3.1zm18.3-.3c1.6 0 2.9-1.3 2.9-2.9 0-1.6-1.3-2.9-2.9-2.9-1.6 0-2.9 1.3-2.9 2.9.1 1.6 1.4 2.9 2.9 2.9zm-130 17.5c.8 0 1.4-.6 1.4-1.4 0-.8-.6-1.4-1.4-1.4-.8 0-1.4.6-1.4 1.4 0 .8.7 1.4 1.4 1.4z" class="st0"/>
    <circle cx="170.7" cy="113.2" r=".3" class="st0"/>
    <path d="M188.3 113.2c0 .3.3.6.6.6s.6-.3.6-.6-.3-.6-.6-.6-.6.2-.6.6zm19.6 2.3c1.3 0 2.3-1 2.3-2.3 0-1.3-1-2.3-2.3-2.3-1.3 0-2.3 1-2.3 2.3 0 1.3 1 2.3 2.3 2.3zm18.3.6c1.6 0 2.9-1.3 2.9-2.9 0-1.6-1.3-2.9-2.9-2.9-1.6 0-2.9 1.3-2.9 2.9 0 1.6 1.3 2.9 2.9 2.9z" class="st0"/>
    <circle cx="244.5" cy="113.2" r=".4" class="st0"/>
    <path d="M264.5 113.2c0-.6-.4-1-1-1s-1 .4-1 1v.1c0 .6.5 1 1.1 1 .4-.2.8-.6.9-1.1zm17.2 3.1c1.7 0 3.1-1.4 3.1-3.1 0-1.7-1.4-3.1-3.1-3.1-1.7 0-3.1 1.4-3.1 3.1 0 1.7 1.4 3.1 3.1 3.1zm-130 17.7c1.4 0 2.5-1.1 2.5-2.5s-1.1-2.5-2.5-2.5h-.1c-1.4 0-2.5 1.1-2.5 2.5.2 1.4 1.3 2.5 2.6 2.5zm21.4-2.5c0-1.3-1.1-2.4-2.4-2.4-1.3 0-2.4 1.1-2.4 2.4 0 1.3 1.1 2.4 2.4 2.4 1.3 0 2.4-1.1 2.4-2.4zm17.5 0c0-.9-.7-1.6-1.6-1.6-.9 0-1.6.7-1.6 1.6 0 .9.7 1.6 1.6 1.6.8 0 1.6-.7 1.6-1.6zm17.3-3.2c-1.7 0-3.2 1.4-3.2 3.2 0 1.7 1.4 3.2 3.2 3.2 1.7 0 3.2-1.4 3.2-3.2 0-1.8-1.4-3.2-3.2-3.2zm18.3 6.6c1.9 0 3.4-1.5 3.4-3.4s-1.6-3.4-3.5-3.4c-1.8 0-3.3 1.5-3.4 3.4.1 1.9 1.6 3.4 3.5 3.4zm18.3-.8c1.5 0 2.6-1.2 2.6-2.6 0-1.5-1.2-2.6-2.6-2.6-1.5 0-2.6 1.2-2.6 2.7 0 1.3 1.1 2.5 2.6 2.5zm18.9.7c1.8 0 3.3-1.5 3.3-3.3 0-1.8-1.5-3.3-3.3-3.3-1.8 0-3.3 1.5-3.2 3.3 0 1.8 1.5 3.2 3.2 3.3zm19.2-3.3c0-.5-.4-.8-.8-.8-.5 0-.8.4-.8.8 0 .5.4.8.8.8s.8-.4.8-.8zm-130.9 21.8c1.6 0 2.9-1.3 2.9-2.9 0-1.6-1.3-2.9-2.9-2.9-1.6 0-2.9 1.3-2.9 2.9 0 1.6 1.3 3 2.9 2.9 0 .1 0 .1 0 0zm19-5.1c-1.2 0-2.2 1-2.2 2.2 0 1.2 1 2.2 2.2 2.2 1.2 0 2.2-1 2.2-2.2 0-1.2-1-2.2-2.2-2.2zm20.8 2.2c0-1.4-1.1-2.6-2.6-2.6-1.4 0-2.6 1.1-2.6 2.6 0 1.4 1.1 2.6 2.6 2.6s2.6-1.2 2.6-2.6zm18.2 0c0-1-.8-1.8-1.8-1.8s-1.8.8-1.8 1.8.8 1.8 1.8 1.8 1.8-.8 1.8-1.8zm16.5-3c-1.7 0-3 1.3-3.1 2.9 0 1.7 1.3 3 2.9 3.1h.1c1.7 0 3-1.4 2.9-3.1.1-1.6-1.2-2.8-2.8-2.9z" class="st0"/>
    <circle cx="244.5" cy="150.4" r=".8" class="st0"/>
    <path d="M263.4 153.7c1.8 0 3.3-1.5 3.3-3.3 0-1.8-1.5-3.3-3.3-3.3-1.8 0-3.3 1.5-3.3 3.3.1 1.8 1.5 3.3 3.3 3.3z" class="st0"/>
    <circle cx="281.7" cy="150.4" r=".4" class="st0"/>
    <path d="M151.7 165c-2 0-3.7 1.7-3.7 3.7s1.7 3.7 3.7 3.7 3.7-1.7 3.7-3.7-1.6-3.7-3.7-3.7zm19 6.7c1.7 0 3-1.4 3-3 0-1.7-1.4-3-3-3-1.7 0-3 1.4-3 3-.1 1.7 1.3 3 3 3zm18.9-2.6c.6 0 1-.5 1-1 0-.6-.5-1-1-1-.6 0-1 .5-1 1 0 .6.4 1 1 1zm17.4-.4c0 .5.4.9.9.9s.9-.4.9-.9-.4-.9-.9-.8c-.5 0-.9.4-.9.8zm19.2-3.5c-1.9 0-3.5 1.6-3.5 3.5s1.6 3.5 3.5 3.5 3.5-1.6 3.5-3.5-1.6-3.5-3.5-3.5zm18.3 4.7c.7 0 1.2-.5 1.2-1.2s-.5-1.2-1.2-1.2-1.2.5-1.2 1.2.6 1.2 1.2 1.2zm18.9-3.8c-1.4 0-2.6 1.2-2.6 2.6 0 1.4 1.2 2.6 2.6 2.6 1.4 0 2.6-1.2 2.6-2.6 0-1.4-1.1-2.6-2.6-2.6zm18.3-.5c-1.7 0-3.2 1.4-3.2 3.2 0 1.7 1.4 3.2 3.2 3.2 1.7 0 3.2-1.4 3.2-3.2 0-1.8-1.4-3.2-3.2-3.2zm-130 18c-1.9 0-3.4 1.5-3.4 3.4s1.5 3.4 3.4 3.4 3.4-1.5 3.4-3.4c.1-1.9-1.5-3.4-3.4-3.4zm19-.3c-2 0-3.7 1.6-3.7 3.7 0 2 1.6 3.7 3.7 3.7 2 0 3.7-1.7 3.7-3.7s-1.7-3.7-3.7-3.7zm18.9 5.1c.8 0 1.4-.6 1.4-1.4 0-.8-.6-1.4-1.4-1.4-.8 0-1.4.6-1.4 1.4 0 .8.6 1.4 1.4 1.4zm73.8-5c-2 0-3.6 1.6-3.6 3.6s1.6 3.6 3.6 3.6 3.6-1.6 3.6-3.6c.1-2-1.6-3.6-3.6-3.6z" class="st0"/>
    <circle cx="281.7" cy="187" r=".7" class="st0"/>
    <path d="M151.7 203c-1.6 0-2.9 1.3-2.9 2.9 0 1.6 1.4 2.9 3 2.8 1.6 0 2.8-1.3 2.8-2.8 0-1.6-1.3-2.9-2.9-2.9zm19-.2c-1.7 0-3.2 1.4-3.2 3.2 0 1.7 1.4 3.2 3.2 3.2 1.7 0 3.2-1.4 3.2-3.2-.1-1.8-1.5-3.2-3.2-3.2zm18.3-.2c-1.8 0-3.3 1.5-3.3 3.3 0 1.8 1.5 3.3 3.3 3.3 1.8 0 3.3-1.5 3.3-3.3 0-1.8-1.5-3.3-3.3-3.3zm18.9 1.4c-1.1 0-2 .9-2 2s.9 2 2 2 2-.9 2-2-.9-2-2-2zm18.3.3c-.9 0-1.6.7-1.6 1.6 0 .9.7 1.6 1.6 1.6.9 0 1.6-.7 1.6-1.6.1-.9-.7-1.6-1.6-1.6zm20.7 1c.3-.9-.2-1.9-1.1-2.2-.9-.3-1.9.2-2.2 1.1-.3.9.2 1.9 1.1 2.2.9.3 1.9-.2 2.2-1.1zm16.9.7c0-.2-.2-.3-.3-.3s-.3.2-.3.3.2.3.3.3.3-.2.3-.3zm17.9-.6c-.3 0-.6.3-.6.6s.3.6.6.6.6-.3.6-.6c0-.4-.2-.6-.6-.6zM170 223.9c-.2 0-.3.1-.3.3 0 .2.1.3.3.3.2 0 .3-.1.3-.3.1-.1-.1-.3-.3-.3z" class="st0"/>
    <circle cx="189" cy="224.3" r=".6" class="st0"/>
    <path d="M245.8 222.8c-.8 0-1.5.7-1.5 1.5s.7 1.5 1.5 1.5 1.5-.7 1.5-1.5c-.1-.9-.7-1.5-1.5-1.5zm18.3.8c-.4 0-.7.3-.7.7 0 .4.3.7.7.7.4 0 .7-.3.7-.7 0-.4-.3-.7-.7-.7zm17.6-.3c-.5 0-.9.4-.9.9s.4.9.9.9.9-.4.9-.9c.1-.5-.3-.9-.9-.9zm19.6-126.7c1.3.3 2.5-.6 2.8-1.8s-.6-2.5-1.8-2.7c-1.3-.3-2.5.6-2.7 1.8-.4 1.2.4 2.4 1.7 2.7zm18.3.7c1.7 0 3.1-1.4 3.1-3.1 0-1.7-1.4-3.1-3.1-3.1-1.7 0-3.1 1.4-3.1 3.1 0 1.8 1.4 3.1 3.1 3.1zm17.8-3.1c0 .6.5 1.1 1.2 1.1.6 0 1.1-.5 1.1-1.1 0-.6-.5-1.1-1.1-1.1-.7 0-1.2.5-1.2 1.1zm19.8 0c0-.2-.1-.3-.3-.3s-.3.1-.3.3c0 .2.1.3.3.3s.3-.1.3-.3zm-55.9 21.7c1.5 0 2.7-1.2 2.7-2.7 0-1.5-1.2-2.7-2.7-2.7-1.5 0-2.7 1.2-2.7 2.7 0 1.5 1.2 2.7 2.7 2.7zm18.3.4c1.7 0 3.2-1.4 3.2-3.2 0-1.7-1.4-3.2-3.2-3.2-1.7 0-3.2 1.4-3.2 3.2.1 1.8 1.5 3.2 3.2 3.2zm18.9-6.4c-1.8 0-3.3 1.4-3.4 3.3 0 1.8 1.4 3.3 3.3 3.4h.1c1.8 0 3.3-1.5 3.3-3.3.1-1.9-1.4-3.4-3.3-3.4zm19.4 3.3c0-.6-.5-1-1-1-.6 0-1 .5-1 1 0 .6.5 1 1 1s1-.4 1-1zm-54.4 18.3c0-1.2-1-2.2-2.2-2.2-1.2 0-2.2 1-2.2 2.2 0 1.2 1 2.2 2.2 2.2 1.2 0 2.2-1 2.2-2.2zm16.1-3.7c-2 0-3.7 1.7-3.7 3.7s1.7 3.7 3.7 3.7 3.7-1.7 3.7-3.7c0-2.1-1.7-3.7-3.7-3.7zm21.8 3.7c0-1.6-1.3-2.8-2.8-2.8-1.6 0-2.8 1.3-2.8 2.8 0 1.5 1.3 2.8 2.8 2.8 1.5 0 2.8-1.3 2.8-2.8zm17.7 0c0-1.3-1-2.3-2.3-2.3-1.3 0-2.3 1-2.3 2.3 0 1.3 1 2.3 2.3 2.3 1.3 0 2.3-1.1 2.3-2.3zm-59.2 18.9c0 .8.6 1.4 1.4 1.4.8 0 1.4-.6 1.4-1.4 0-.8-.6-1.4-1.4-1.4-.8 0-1.4.6-1.4 1.4zm19.7-1c-.6 0-1 .5-1 1 0 .6.5 1 1 1 .6 0 1-.5 1-1s-.4-1-1-1z" class="st0"/>
    <circle cx="338.5" cy="150.4" r=".4" class="st0"/>
    <path d="M355.3 150.4c0 .9.7 1.6 1.6 1.5.8 0 1.5-.7 1.5-1.5 0-.9-.7-1.6-1.6-1.6-.8 0-1.5.7-1.5 1.6zm-54 15c-1.8 0-3.3 1.5-3.3 3.3 0 1.8 1.5 3.3 3.3 3.3 1.8 0 3.3-1.5 3.2-3.3 0-1.8-1.4-3.2-3.2-3.3zm18.7 3.3c0-.2-.2-.3-.3-.3-.2 0-.3.2-.3.3 0 .2.2.3.3.3.1.1.3-.1.3-.3zm18.5-3.2c-1.8 0-3.2 1.4-3.2 3.2 0 1.8 1.4 3.2 3.2 3.2 1.8 0 3.2-1.4 3.2-3.2 0-1.7-1.4-3.2-3.2-3.2zm18.3.1c-1.7 0-3.2 1.4-3.2 3.2s1.4 3.2 3.2 3.2c1.7 0 3.2-1.4 3.2-3.2 0-1.8-1.4-3.2-3.2-3.2zm-55.5 19.6c-1 0-1.8.8-1.8 1.8s.8 1.7 1.8 1.8c1 0 1.8-.8 1.8-1.8s-.8-1.8-1.8-1.8z" class="st0"/>
    <circle cx="319.6" cy="187" r=".9" class="st0"/>
    <path d="M337.9 185.8c-.7 0-1.2.5-1.2 1.2s.5 1.2 1.2 1.2 1.2-.5 1.2-1.2-.5-1.2-1.2-1.2zm21 1.2c0-1.1-.9-2.1-2.1-2.1-1.1 0-2.1.9-2.1 2.1 0 1.1.9 2.1 2.1 2.1 1.2 0 2.1-.9 2.1-2.1zm-20.4 18.4c-.3 0-.6.3-.6.6s.3.6.6.6.6-.3.6-.6c0-.4-.2-.6-.6-.6zm18.3-1.2c-1 0-1.8.8-1.8 1.8s.8 1.8 1.8 1.8 1.8-.8 1.8-1.8-.8-1.8-1.8-1.8zm-37.2 19.6c-.2 0-.4.2-.4.5 0 .2.2.4.4.4s.4-.2.4-.4c.1-.3-.1-.5-.4-.5zm18.3 0c-.3 0-.5.2-.5.5s.2.5.5.5.5-.2.5-.5-.2-.5-.5-.5zm18.9-1.9c-1.3 0-2.3 1-2.3 2.3 0 1.3 1 2.3 2.3 2.3 1.3 0 2.3-1 2.3-2.3 0-1.2-1-2.3-2.3-2.3z" class="st0"/>
</svg>
